/* XPM */
static char * ground_xpm[] = {
"34 32 3 1",
" 	c #6B5239",
".	c #8C734A",
"+	c #AD945A",
"    ..++++++++++++++++++++++++++++",
"    ..++++++++++++++++++++++++++++",
"  ..+++++++++++++++..+++++++++++++",
"  ..+++++++++++++++..+++++++++++++",
"..++++++++++++++++++++++++++++++++",
"..++++++++++++++++++++++++++++++++",
"++++++++++++++++++++++++++++++....",
"++++++++++++++++++++++++++++++....",
"++++++++++++++++++++++++++......++",
"++++++++++++++++++++++++++......++",
"+++++++++++++++++++++..+++++++++++",
"+++++++++++++++++++++..+++++++++++",
"+++++++++++++++++++++..+++++++++++",
"++++++++++++++++++++++++++++++++++",
"++++++++++++++++++++++++++++++++++",
"++++++++++++++++++++++++++++++++++",
"++++++++++++++++++++++++++++++++++",
"++++++++++++++++++++++++++++++++++",
"++++++++++++++++++++++++++++++++++",
"++..+++++++++++++++..+++++++++++++",
"++..+++++++++++++++..+++++++++++++",
"++++++++++++++++++++++++++++++++++",
"++++++++++++++++++++++++++++++++++",
"+++++++++++++....+++++++++++++....",
"+++++++++++++....+++++++++++++....",
"+++++++++......+++++++++++......++",
"+++++++++......+++++++++++......++",
"+++++++++......+++++++++++......++",
"++++..+++++++++++++++..+++++++++++",
"++++..+++++++++++++++..+++++++++++",
"++++++++++++++++++++++++++++++++++",
"++++++++++++++++++++++++++++++++++"};
