/* XPM */
static char * link_sprite_xpm[] = {
"32 32 192 2",
"  	c None",
". 	c #000000",
"+ 	c #000100",
"@ 	c #414141",
"# 	c #3E3E3E",
"$ 	c #447A46",
"% 	c #457A44",
"& 	c #6C8A4A",
"* 	c #6C8B48",
"= 	c #467941",
"- 	c #030303",
"; 	c #4BAF4F",
"> 	c #4EAE4C",
", 	c #8AC149",
"' 	c #53AD4B",
") 	c #50A854",
"! 	c #4DAE51",
"~ 	c #84C34E",
"{ 	c #4AAF4F",
"] 	c #8AC14A",
"^ 	c #735B3F",
"/ 	c #785446",
"( 	c #FCEB3D",
"_ 	c #FDEC3E",
": 	c #FCC008",
"< 	c #FDBF08",
"[ 	c #765544",
"} 	c #755443",
"| 	c #88C249",
"1 	c #000400",
"2 	c #000500",
"3 	c #8FBD50",
"4 	c #745D33",
"5 	c #795636",
"6 	c #FFE939",
"7 	c #FDC006",
"8 	c #7C5534",
"9 	c #7C5536",
"0 	c #090909",
"a 	c #4DAE4F",
"b 	c #FAE54A",
"c 	c #FEEA3B",
"d 	c #FCC006",
"e 	c #785448",
"f 	c #4BAF4D",
"g 	c #010000",
"h 	c #FF9700",
"i 	c #FC9900",
"j 	c #FFBF06",
"k 	c #85552F",
"l 	c #080000",
"m 	c #FEAC60",
"n 	c #FDDFBB",
"o 	c #7F5733",
"p 	c #FDC010",
"q 	c #F6AC6B",
"r 	c #785444",
"s 	c #785542",
"t 	c #FECB92",
"u 	c #FECB94",
"v 	c #030000",
"w 	c #585858",
"x 	c #A18F79",
"y 	c #F6CBA0",
"z 	c #FFCD9A",
"A 	c #4D3630",
"B 	c #CC9923",
"C 	c #AA6E25",
"D 	c #AC6D2A",
"E 	c #FDB302",
"F 	c #FFB204",
"G 	c #A27A09",
"H 	c #A07A0D",
"I 	c #AA744E",
"J 	c #FCB879",
"K 	c #FEB872",
"L 	c #FEC180",
"M 	c #FBC084",
"N 	c #A1835F",
"O 	c #595856",
"P 	c #E9A86E",
"Q 	c #F79611",
"R 	c #F79E00",
"S 	c #FFCA8F",
"T 	c #F5AE6C",
"U 	c #2095F2",
"V 	c #000920",
"W 	c #FD9800",
"X 	c #FF9702",
"Y 	c #F09812",
"Z 	c #F9980D",
"` 	c #0C0100",
" .	c #FCAD62",
"..	c #FEAC62",
"+.	c #FC9802",
"@.	c #00030E",
"#.	c #2095F4",
"$.	c #080808",
"%.	c #040000",
"&.	c #7A5441",
"*.	c #7D5742",
"=.	c #765546",
"-.	c #FFE93B",
";.	c #F9F9F9",
">.	c #FDFDFD",
",.	c #51AB51",
"'.	c #58A853",
").	c #7B5443",
"!.	c #F7C69B",
"~.	c #FFCB91",
"{.	c #FDCB96",
"].	c #7A5543",
"^.	c #5EA255",
"/.	c #F6F5F3",
"(.	c #FFE93D",
"_.	c #FFEA39",
":.	c #FCE944",
"<.	c #FCFBF7",
"[.	c #FFFDFA",
"}.	c #52AA53",
"|.	c #765448",
"1.	c #F4C79D",
"2.	c #FDCA95",
"3.	c #5AA553",
"4.	c #F9F5F2",
"5.	c #FBEA45",
"6.	c #F6CB98",
"7.	c #51AB54",
"8.	c #FEFEFE",
"9.	c #F3D1AB",
"0.	c #FDCE98",
"a.	c #58A95C",
"b.	c #725547",
"c.	c #795346",
"d.	c #000600",
"e.	c #060000",
"f.	c #FEAD5E",
"g.	c #0E0000",
"h.	c #000002",
"i.	c #000F00",
"j.	c #010E00",
"k.	c #001500",
"l.	c #001100",
"m.	c #DDB868",
"n.	c #DDB867",
"o.	c #021000",
"p.	c #000E00",
"q.	c #89C048",
"r.	c #4FAE4A",
"s.	c #ECC79B",
"t.	c #FDCC94",
"u.	c #FACC9B",
"v.	c #84C350",
"w.	c #EBDC69",
"x.	c #FABE0E",
"y.	c #FBCC94",
"z.	c #F4AF6C",
"A.	c #190B00",
"B.	c #130200",
"C.	c #0D0400",
"D.	c #0F0300",
"E.	c #000C00",
"F.	c #89BD51",
"G.	c #8BB758",
"H.	c #89B85A",
"I.	c #54A257",
"J.	c #D4CA35",
"K.	c #F8C40C",
"L.	c #F99D00",
"M.	c #F19E04",
"N.	c #86B95D",
"O.	c #8AB655",
"P.	c #000D00",
"Q.	c #0D0300",
"R.	c #140100",
"S.	c #120200",
"T.	c #8BBC53",
"U.	c #87C24C",
"V.	c #D4CB2E",
"W.	c #F59B06",
"X.	c #4BAE51",
"Y.	c #795547",
"Z.	c #755548",
"`.	c #72544A",
" +	c #060606",
".+	c #715349",
"++	c #715348",
"@+	c #6F5449",
"#+	c #070506",
"$+	c #6C534C",
"%+	c #050706",
"&+	c #040404",
"                                                                ",
"                      . . . + . . . . . .                       ",
"                  @ # $ % & * * * * * = $ # #                   ",
"                  - . ; > , , , , , , ' ; . .                   ",
"                . ) ; , , , , , , , , , , ; ! .                 ",
"            . . ; ~ , ; ; ; ; ; ; ; ; { ; , ] ; + .             ",
"            . + , ^ / ( ( ( ( _ : : : < : [ } | + .             ",
"            1 2 3 4 5 6 6 6 6 6 7 7 7 7 7 8 9 3 2 1             ",
"        0 . ; a / b c 7 7 7 7 7 7 d 7 7 < 7 < e ; f . .         ",
"        0 . . g 7 7 7 h i 7 7 7 7 j h k / j < c + . . l m       ",
"  . . n n n / / < o / 7 7 7 7 7 7 p / q m / r 7 s / t t u v .   ",
"  w w x y z A A B C D 7 7 7 E F G H I J K / r 7 s / L M N O w   ",
"      . P m . . / Q h 7 7 7 R h . v m S t / r d s / m T .       ",
"      U V . W X . Y h h Z / ` . m  .t t t m ... +.W . @.#.      ",
"        $.. 7 < / %.. / &.m m ..t t t *./ / / =.: 7 . .         ",
"        0 . -.-.g ;.>.,.'.).!.~.t {.].^.,././.g (._.. .         ",
"        0 . :.:.. <.[.; }.|.1.t t 2.=.3.; 4.4.. 5.:.. .         ",
"            . . . 6.t ; 7.8.9.t t 0.8.a.; t u . . .             ",
"                . b.c.t t u t t t t t t t / |..                 ",
"            . g , d.. . e.f.m m m m m g.. . h., + .             ",
"            i.j., k.l.l.i.m.m.n.m.n.n.o.l.l.l., p.j.            ",
"        0 . , , q.r.; ; ; ; ; ; ; ; ; ; ; ; ; , , , . .         ",
"      + s.t t u . . . ; ; ; ; ; ; ; ; ; ; . . . t.t t u.+       ",
"      . P m t t ; v., . . . w.c 7 x.. . . , ] ; y.t m z..       ",
"        A.B.C.D.E.F., G.H.I.J.K.L.M.I.N.O., ] P.Q.Q.R.S.        ",
"        0 . . . . T., , U.; V.d h W.; v., , ] . . . . .         ",
"                . . . ; > , , , , , ] ' X.. . .                 ",
"            . . / / / . + . . . . . . h.. / / / . .             ",
"            . . / / Y./ Z..         . `./ / / / . .             ",
"             + +.+++.+.+@+#+         +$+.+++.+.+ +%+            ",
"                . . . . .             &+. . . .                 ",
"                                                                "};
