/* XPM */
static char * rupee_spritejpg_xpm[] = {
"32 32 92 2",
"  	c None",
". 	c #222035",
"+ 	c #222133",
"@ 	c #03010F",
"# 	c #63A541",
"$ 	c #6BBE30",
"% 	c #61A341",
"& 	c #030212",
"* 	c #6CBE2C",
"= 	c #8EDC4B",
"- 	c #99E54F",
"; 	c #8DDD48",
"> 	c #6BBE2E",
", 	c #242136",
"' 	c #211F34",
") 	c #232234",
"! 	c #252138",
"~ 	c #242333",
"{ 	c #B4F67A",
"] 	c #7FC853",
"^ 	c #232031",
"/ 	c #23212F",
"( 	c #011202",
"_ 	c #C1E792",
": 	c #BBEF80",
"< 	c #BDEF80",
"[ 	c #99E64C",
"} 	c #B2EC7C",
"| 	c #98DB72",
"1 	c #65AA3F",
"2 	c #66AA3D",
"3 	c #89C65F",
"4 	c #99CA6E",
"5 	c #031805",
"6 	c #202133",
"7 	c #030C07",
"8 	c #9AE44F",
"9 	c #2F3F25",
"0 	c #3D3D47",
"a 	c #FFFFFF",
"b 	c #0E180F",
"c 	c #1F2235",
"d 	c #9AE258",
"e 	c #202135",
"f 	c #E6E1F5",
"g 	c #E1E1EB",
"h 	c #222036",
"i 	c #68BF32",
"j 	c #232033",
"k 	c #E5E4EC",
"l 	c #E1E2E6",
"m 	c #95CD62",
"n 	c #8EC760",
"o 	c #F9FFE4",
"p 	c #90C962",
"q 	c #94D65A",
"r 	c #202231",
"s 	c #9AD44C",
"t 	c #9AE453",
"u 	c #241F36",
"v 	c #91C860",
"w 	c #94C363",
"x 	c #222038",
"y 	c #6ABF30",
"z 	c #6CBD32",
"A 	c #2B3D25",
"B 	c #97E551",
"C 	c #001204",
"D 	c #001304",
"E 	c #BDEB91",
"F 	c #BAF080",
"G 	c #97E64F",
"H 	c #B6E879",
"I 	c #A2E16E",
"J 	c #6BBD2D",
"K 	c #6ABD31",
"L 	c #88C75E",
"M 	c #96CC74",
"N 	c #051707",
"O 	c #202334",
"P 	c #252235",
"Q 	c #99E551",
"R 	c #6BBE32",
"S 	c #68C02C",
"T 	c #22223C",
"U 	c #020111",
"V 	c #202136",
"W 	c #64A541",
"X 	c #6CBE2E",
"Y 	c #5AA44D",
"Z 	c #1D2235",
"` 	c #030214",
"                      . . . . . . . . . +                       ",
"                      . . . . . . . . . +                       ",
"                @ . . . . # $ $ $ $ % . . . . &                 ",
"                @ . . . . # $ $ $ $ % . . . . &                 ",
"            . . . . . * $ = - - - - ; $ > . . . . .             ",
"            . . , ' ' * $ = - - - - ; $ $ ) ) ! . .             ",
"      ~ . . . . { - - - - - - - - - ; $ $ $ $ ] . . . . ^       ",
"      ~ . / ( ( _ : < [ - } : : : : | 1 2 3 3 4 5 5 . . ^       ",
"      ~ . 6 - - 7 . . 8 - 9 . . . . 0 a a . . b $ $ c . ^       ",
"      ~ . 6 - - d 8 8 . e f a a a a g . h i i > $ $ c . ^       ",
"      ~ . 6 - - - - - j . k a a a a l . . $ $ $ $ $ c . ^       ",
"      ~ . 6 - - - - - j . k a a 8 8 m . . $ $ $ $ $ c . ^       ",
"      ~ . 6 - - - - - j . k a a - - n . . $ $ $ $ $ c . ^       ",
"      ~ . 6 - - o a a . . k a a - - n . . $ $ $ $ $ c . ^       ",
"      ~ . 6 - - o a a . . k a a - - n . . $ $ $ $ $ c . ^       ",
"      ~ . . a a a a a . . p - - - - n . . $ $ $ $ $ c . ^       ",
"      ~ . . a a a a a . . p - - - - n . . $ $ $ $ $ c . ^       ",
"      ~ . . a a q - - j . p - - - - n . . $ $ $ $ $ c . ^       ",
"      ~ . . a a q - - j . p - - - - n . . $ $ $ $ $ c . ^       ",
"      ~ . . a a q - - j . p - - - - n . . $ $ $ $ $ c . ^       ",
"      ~ . r a a s - - j . p - - - - n . . $ $ $ $ $ c . ^       ",
"      ~ . 6 - - - - - j . p - - - - n . . $ $ $ $ $ c . ^       ",
"      ~ . 6 - - t - - u . v - - - - w . x y y z $ $ c . ^       ",
"      ~ . 6 - - 7 . . 8 - 9 . . . . A - B . . b $ $ c . ^       ",
"      ~ . + C D E F < G - H F F F F I J K L L M N N . . ^       ",
"      ~ . . . . { - - - - - - - - - ; $ $ $ $ ] . . . . ^       ",
"            . . O P P Q - - - - R R $ $ S , , T . .             ",
"            . . . . . 8 - - - - $ $ $ $ > . . . . .             ",
"                U . . V V W X X $ $ Y V Z . . `                 ",
"                @ . . . . # $ $ $ $ % . . . . &                 ",
"                      . . . . . . . . . +                       ",
"                      . . . . . . . . . +                       "};
