/* XPM */
static char * wall_xpm[] = {
"32 32 6 1",
" 	c #AD945A",
".	c #8C734A",
"+	c #292929",
"@	c #739C84",
"#	c #C6E7C6",
"$	c #A5CEB5",
"                                ",
"                                ",
"        ..++++++++++++..        ",
"        ..++++++++++++..        ",
"    ....++@@########@@++....    ",
"    ....++@@########@@++....    ",
"    ++++$$####$$$$####$$++++    ",
"    ++++$$####$$$$####$$++++    ",
"..++@@$$####$$####$$####$$@@++..",
"..++@@$$####$$####$$####$$@@++..",
"..++$$$$##$$########$$##$$$$++..",
"..++$$$$##$$########$$##$$$$++..",
"++@@@@$$##$$########$$##$$@@@@++",
"++@@@@$$##$$########$$##$$@@@@++",
"++@@@@$$####$$####$$####$$@@@@++",
"++@@@@$$####$$####$$####$$@@@@++",
"++@@@@$$######$$$$######$$@@@@++",
"++@@@@$$######$$$$######$$@@@@++",
"++@@$$$$$$$$########$$$$$$$$@@++",
"++@@$$$$$$$$########$$$$$$$$@@++",
"++@@$$@@@@$$$$$$$$$$$$@@@@$$@@++",
"++@@$$@@@@$$$$$$$$$$$$@@@@$$@@++",
"..++@@@@@@$$$$@@@@$$$$@@@@@@++..",
"..++@@@@@@$$$$@@@@$$$$@@@@@@++..",
"....++++@@$$@@@@@@@@$$@@++++....",
"....++++@@$$@@@@@@@@$$@@++++....",
"    ..++@@$$@@@@@@@@$$@@++..    ",
"    ..++@@$$@@@@@@@@$$@@++..    ",
"    ....++@@@@@@@@@@@@++....    ",
"    ....++@@@@@@@@@@@@++....    ",
"        ..++++++++++++..        ",
"        ..++++++++++++..        "};
